<svg width="12" height="13" viewBox="0 0 12 13" fill="none" xmlns="http://www.w3.org/2000/svg">
<path fill-rule="evenodd" clip-rule="evenodd" d="M5.98918 0.834534C4.37601 0.834534 4.17356 0.841587 3.53998 0.87042C2.90763 0.899377 2.476 0.999488 2.09833 1.14638C1.70766 1.29809 1.37626 1.50103 1.04611 1.83132C0.715701 2.16147 0.512756 2.49287 0.360547 2.88341C0.213288 3.26121 0.113053 3.69296 0.084591 4.32506C0.0562529 4.95865 0.0488281 5.16122 0.0488281 6.77439C0.0488281 8.38755 0.0560055 8.58938 0.0847147 9.22297C0.113795 9.85532 0.213907 10.2869 0.360671 10.6646C0.512508 11.0553 0.715453 11.3867 1.04573 11.7168C1.37577 12.0472 1.70716 12.2507 2.09758 12.4024C2.47551 12.5493 2.90726 12.6494 3.53948 12.6784C4.17307 12.7072 4.37539 12.7142 5.98844 12.7142C7.60173 12.7142 7.80356 12.7072 8.43714 12.6784C9.06949 12.6494 9.50161 12.5493 9.87954 12.4024C10.2701 12.2507 10.601 12.0472 10.931 11.7168C11.2614 11.3867 11.4644 11.0553 11.6166 10.6647C11.7626 10.2869 11.8628 9.85519 11.8925 9.22309C11.921 8.58951 11.9284 8.38755 11.9284 6.77439C11.9284 5.16122 11.921 4.95877 11.8925 4.32519C11.8628 3.69284 11.7626 3.26121 11.6166 2.88354C11.4644 2.49287 11.2614 2.16147 10.931 1.83132C10.6006 1.50091 10.2702 1.29797 9.87916 1.14638C9.5005 0.999488 9.06862 0.899377 8.43627 0.87042C7.80269 0.841587 7.60098 0.834534 5.98732 0.834534H5.98918ZM5.4563 1.90493C5.61445 1.90468 5.79091 1.90493 5.98915 1.90493C7.57509 1.90493 7.76307 1.91062 8.38935 1.93908C8.96848 1.96556 9.2828 2.06233 9.49218 2.14364C9.76937 2.2513 9.967 2.37999 10.1748 2.58789C10.3827 2.79578 10.5114 2.99378 10.6193 3.27097C10.7006 3.4801 10.7975 3.79442 10.8238 4.37356C10.8523 4.99972 10.8585 5.18781 10.8585 6.77301C10.8585 8.35821 10.8523 8.5463 10.8238 9.17246C10.7973 9.7516 10.7006 10.0659 10.6193 10.2751C10.5116 10.5522 10.3827 10.7496 10.1748 10.9574C9.96687 11.1653 9.7695 11.294 9.49218 11.4016C9.28305 11.4833 8.96848 11.5798 8.38935 11.6063C7.76319 11.6348 7.57509 11.641 5.98915 11.641C4.40309 11.641 4.21512 11.6348 3.58896 11.6063C3.00982 11.5796 2.6955 11.4828 2.486 11.4015C2.20881 11.2939 2.01081 11.1652 1.80292 10.9573C1.59502 10.7494 1.46632 10.5519 1.35842 10.2746C1.27712 10.0654 1.18022 9.75111 1.15386 9.17197C1.1254 8.54581 1.11971 8.35771 1.11971 6.77153C1.11971 5.18534 1.1254 4.99823 1.15386 4.37207C1.18035 3.79294 1.27712 3.47862 1.35842 3.26924C1.46608 2.99205 1.59502 2.79405 1.80292 2.58616C2.01081 2.37826 2.20881 2.24956 2.486 2.14166C2.69538 2.05998 3.00982 1.96346 3.58896 1.93685C4.13691 1.91211 4.34926 1.90468 5.4563 1.90344V1.90493ZM9.1598 2.89119C8.76629 2.89119 8.44702 3.21009 8.44702 3.60373C8.44702 3.99724 8.76629 4.31651 9.1598 4.31651C9.55332 4.31651 9.87258 3.99724 9.87258 3.60373C9.87258 3.21021 9.55332 2.89119 9.1598 2.89119ZM5.98919 3.72401C4.30462 3.72401 2.93882 5.0898 2.93882 6.77437C2.93882 8.45894 4.30462 9.82412 5.98919 9.82412C7.67376 9.82412 9.03906 8.45894 9.03906 6.77437C9.03906 5.0898 7.67376 3.72401 5.98919 3.72401ZM5.98916 4.79442C7.08259 4.79442 7.96912 5.68082 7.96912 6.77437C7.96912 7.8678 7.08259 8.75432 5.98916 8.75432C4.89561 8.75432 4.00921 7.8678 4.00921 6.77437C4.00921 5.68082 4.89561 4.79442 5.98916 4.79442Z" fill="white"/>
</svg>
