<svg width="24" height="22" viewBox="0 0 24 22" fill="none" xmlns="http://www.w3.org/2000/svg">
<mask id="path-1-inside-1_211_2339" fill="white">
<path d="M15.0112 10.7647C14.8436 10.7647 14.688 10.7186 14.5497 10.6445V10.6464C14.5497 10.9101 14.4472 11.1578 14.2613 11.3433C14.0753 11.5292 13.8279 11.6317 13.5645 11.6317C13.3944 11.6317 13.2368 11.5845 13.0971 11.5084C13.083 11.7496 12.9865 11.9751 12.8145 12.1473C12.6285 12.3333 12.3811 12.4358 12.1175 12.4358C11.5939 12.4358 11.1686 12.0242 11.138 11.5082C10.976 11.5958 10.7928 11.6417 10.6039 11.6296C10.0887 11.5958 9.68534 11.1507 9.68534 10.6161V6.18447L9.18071 7.05871C8.98851 7.39309 8.62873 7.6007 8.24136 7.6007C8.05261 7.6007 7.86615 7.55117 7.70101 7.45655C7.49537 7.33733 7.34827 7.14595 7.28709 6.917C7.2256 6.6879 7.25741 6.44831 7.3763 6.24297C7.37647 6.24297 9.02738 3.38408 9.12809 3.20847C9.14006 3.18206 9.17418 3.10548 9.2032 3.04021C9.23092 2.97789 9.2547 2.91394 9.27749 2.84965C9.77535 1.44409 11.0081 0.570988 12.4949 0.570988C14.4255 0.570988 15.9963 2.2742 15.9963 4.36776L15.9964 9.77925C15.9964 10.0426 15.8941 10.2901 15.7083 10.4762C15.5223 10.6622 15.2749 10.7647 15.0112 10.7647L15.0112 10.7647ZM12.4949 1.09453C11.2174 1.09453 10.1991 1.81612 9.77096 3.02474C9.74358 3.10149 9.71504 3.17824 9.68175 3.25302C9.58516 3.46966 9.58516 3.46965 9.55794 3.50081L9.55433 3.49769C9.41953 3.75205 9.01906 4.44556 7.82962 6.50499C7.78075 6.58945 7.76779 6.68752 7.79272 6.78132C7.81798 6.87513 7.87849 6.95417 7.96229 7.00255C8.22238 7.15194 8.57859 7.05551 8.72683 6.79723L9.72046 5.07693C9.77983 4.97443 9.89987 4.92409 10.015 4.95525C10.1295 4.98591 10.209 5.08972 10.209 5.20812V10.6163C10.209 10.8714 10.4015 11.0917 10.6382 11.1072C10.7746 11.1145 10.9019 11.0687 10.9975 10.9733C11.0844 10.8863 11.1323 10.7706 11.1323 10.6467V7.10976C11.1323 6.96512 11.2495 6.84786 11.3942 6.84786C11.5388 6.84786 11.6561 6.96495 11.6561 7.10976L11.6559 11.4507C11.6559 11.7052 11.863 11.9123 12.1175 11.9123C12.2412 11.9123 12.3573 11.8645 12.4444 11.7775C12.5313 11.6905 12.5792 11.5744 12.5792 11.4507V7.10975C12.5792 6.96511 12.6963 6.84785 12.8411 6.84785C12.9857 6.84785 13.103 6.96495 13.103 7.10975L13.1028 10.6061V10.6467C13.1028 10.9011 13.3099 11.1082 13.5646 11.1082C13.6881 11.1082 13.8039 11.0602 13.8915 10.9729C13.9784 10.8862 14.0263 10.7704 14.0263 10.6466V7.10957C14.0263 6.96493 14.1434 6.84767 14.2882 6.84767C14.4328 6.84767 14.5501 6.96476 14.5501 7.10957L14.5497 9.77938C14.5497 10.0341 14.7568 10.2412 15.0112 10.2412C15.135 10.2412 15.2508 10.1931 15.3377 10.1064C15.4249 10.0191 15.4727 9.90303 15.4727 9.77938L15.4728 4.36789C15.4728 2.56316 14.137 1.09458 12.4949 1.09458L12.4949 1.09453Z"/>
</mask>
<path d="M15.0112 10.7647C14.8436 10.7647 14.688 10.7186 14.5497 10.6445V10.6464C14.5497 10.9101 14.4472 11.1578 14.2613 11.3433C14.0753 11.5292 13.8279 11.6317 13.5645 11.6317C13.3944 11.6317 13.2368 11.5845 13.0971 11.5084C13.083 11.7496 12.9865 11.9751 12.8145 12.1473C12.6285 12.3333 12.3811 12.4358 12.1175 12.4358C11.5939 12.4358 11.1686 12.0242 11.138 11.5082C10.976 11.5958 10.7928 11.6417 10.6039 11.6296C10.0887 11.5958 9.68534 11.1507 9.68534 10.6161V6.18447L9.18071 7.05871C8.98851 7.39309 8.62873 7.6007 8.24136 7.6007C8.05261 7.6007 7.86615 7.55117 7.70101 7.45655C7.49537 7.33733 7.34827 7.14595 7.28709 6.917C7.2256 6.6879 7.25741 6.44831 7.3763 6.24297C7.37647 6.24297 9.02738 3.38408 9.12809 3.20847C9.14006 3.18206 9.17418 3.10548 9.2032 3.04021C9.23092 2.97789 9.2547 2.91394 9.27749 2.84965C9.77535 1.44409 11.0081 0.570988 12.4949 0.570988C14.4255 0.570988 15.9963 2.2742 15.9963 4.36776L15.9964 9.77925C15.9964 10.0426 15.8941 10.2901 15.7083 10.4762C15.5223 10.6622 15.2749 10.7647 15.0112 10.7647L15.0112 10.7647ZM12.4949 1.09453C11.2174 1.09453 10.1991 1.81612 9.77096 3.02474C9.74358 3.10149 9.71504 3.17824 9.68175 3.25302C9.58516 3.46966 9.58516 3.46965 9.55794 3.50081L9.55433 3.49769C9.41953 3.75205 9.01906 4.44556 7.82962 6.50499C7.78075 6.58945 7.76779 6.68752 7.79272 6.78132C7.81798 6.87513 7.87849 6.95417 7.96229 7.00255C8.22238 7.15194 8.57859 7.05551 8.72683 6.79723L9.72046 5.07693C9.77983 4.97443 9.89987 4.92409 10.015 4.95525C10.1295 4.98591 10.209 5.08972 10.209 5.20812V10.6163C10.209 10.8714 10.4015 11.0917 10.6382 11.1072C10.7746 11.1145 10.9019 11.0687 10.9975 10.9733C11.0844 10.8863 11.1323 10.7706 11.1323 10.6467V7.10976C11.1323 6.96512 11.2495 6.84786 11.3942 6.84786C11.5388 6.84786 11.6561 6.96495 11.6561 7.10976L11.6559 11.4507C11.6559 11.7052 11.863 11.9123 12.1175 11.9123C12.2412 11.9123 12.3573 11.8645 12.4444 11.7775C12.5313 11.6905 12.5792 11.5744 12.5792 11.4507V7.10975C12.5792 6.96511 12.6963 6.84785 12.8411 6.84785C12.9857 6.84785 13.103 6.96495 13.103 7.10975L13.1028 10.6061V10.6467C13.1028 10.9011 13.3099 11.1082 13.5646 11.1082C13.6881 11.1082 13.8039 11.0602 13.8915 10.9729C13.9784 10.8862 14.0263 10.7704 14.0263 10.6466V7.10957C14.0263 6.96493 14.1434 6.84767 14.2882 6.84767C14.4328 6.84767 14.5501 6.96476 14.5501 7.10957L14.5497 9.77938C14.5497 10.0341 14.7568 10.2412 15.0112 10.2412C15.135 10.2412 15.2508 10.1931 15.3377 10.1064C15.4249 10.0191 15.4727 9.90303 15.4727 9.77938L15.4728 4.36789C15.4728 2.56316 14.137 1.09458 12.4949 1.09458L12.4949 1.09453Z" fill="#4CAF4F"/>
<path d="M15.0112 10.7647V9.83659H18.2902L15.4976 11.5551L15.0112 10.7647ZM14.5497 10.6445H13.6216V9.09374L14.9883 9.82655L14.5497 10.6445ZM14.2613 11.3433L13.605 10.687L13.6059 10.6861L14.2613 11.3433ZM13.0971 11.5084L12.1706 11.4542L12.256 9.99357L13.5409 10.6933L13.0971 11.5084ZM12.8145 12.1473L13.4711 12.8032L13.4708 12.8036L12.8145 12.1473ZM11.138 11.5082L10.6967 10.6918L11.9781 9.99922L12.0645 11.4532L11.138 11.5082ZM10.6039 11.6296L10.5444 12.5558L10.5431 12.5557L10.6039 11.6296ZM9.68534 6.18447L8.88154 5.72051L10.6134 2.7201V6.18447H9.68534ZM9.18071 7.05871L8.37607 6.59621L8.37691 6.59474L9.18071 7.05871ZM7.70101 7.45655L7.23959 8.26182L7.23553 8.25947L7.70101 7.45655ZM7.28709 6.917L8.18346 6.67639L8.18373 6.67743L7.28709 6.917ZM7.3763 6.24297L6.57314 5.77792L6.84125 5.31488H7.3763V6.24297ZM9.12809 3.20847L9.97335 3.59172L9.95513 3.63191L9.93318 3.67019L9.12809 3.20847ZM9.2032 3.04021L8.35519 2.66308L8.35519 2.66307L9.2032 3.04021ZM9.27749 2.84965L10.1523 3.15953L10.1522 3.15978L9.27749 2.84965ZM15.9963 4.36776L15.0682 4.36779V4.36776H15.9963ZM15.9964 9.77925L16.9245 9.77923V9.77925H15.9964ZM15.7083 10.4762L16.3652 11.1319L16.3645 11.1325L15.7083 10.4762ZM15.0112 10.7647V11.6928H11.7322L14.5248 9.97429L15.0112 10.7647ZM12.4949 1.09453V0.166438H13.7253L13.3873 1.3495L12.4949 1.09453ZM9.77096 3.02474L10.6458 3.33466L10.6451 3.33666L9.77096 3.02474ZM9.68175 3.25302L10.5296 3.63047L10.5294 3.63096L9.68175 3.25302ZM9.55794 3.50081L10.2568 4.11146L9.64969 4.80635L8.95132 4.20321L9.55794 3.50081ZM9.55433 3.49769L8.73428 3.06309L9.2796 2.03413L10.1609 2.79529L9.55433 3.49769ZM7.82962 6.50499L8.6333 6.96917L8.63292 6.96983L7.82962 6.50499ZM7.79272 6.78132L6.89654 7.0226L6.89577 7.0197L7.79272 6.78132ZM7.96229 7.00255L7.50003 7.80732L7.49829 7.80632L7.96229 7.00255ZM8.72683 6.79723L7.92188 6.33525L7.92316 6.33304L8.72683 6.79723ZM9.72046 5.07693L8.91679 4.61274L8.91736 4.61176L9.72046 5.07693ZM10.015 4.95525L9.77482 5.85173L9.77252 5.85111L10.015 4.95525ZM10.6382 11.1072L10.5892 12.0341L10.5772 12.0333L10.6382 11.1072ZM10.9975 10.9733L11.6537 11.6295L11.6532 11.6301L10.9975 10.9733ZM11.6561 7.10976H12.5842V7.10979L11.6561 7.10976ZM11.6559 11.4507H10.7278V11.4507L11.6559 11.4507ZM12.4444 11.7775L13.1013 12.4332L13.1 12.4344L12.4444 11.7775ZM13.103 7.10975H14.0311V7.1098L13.103 7.10975ZM13.1028 10.6061H12.1747V10.606L13.1028 10.6061ZM13.8915 10.9729L14.5471 11.6298L14.5465 11.6304L13.8915 10.9729ZM14.5501 7.10957H15.4781V7.10968L14.5501 7.10957ZM14.5497 9.77938H13.6216V9.77926L14.5497 9.77938ZM15.3377 10.1064L15.994 10.7626L15.9933 10.7633L15.3377 10.1064ZM15.4727 9.77938H14.5446V9.77935L15.4727 9.77938ZM15.4728 4.36789H16.4009V4.36792L15.4728 4.36789ZM12.4949 1.09458V2.02268H11.2645L11.6025 0.839618L12.4949 1.09458ZM15.0112 11.6928C14.6695 11.6928 14.3644 11.5982 14.1112 11.4624L14.9883 9.82655C15.0003 9.83298 15.0079 9.83543 15.0109 9.83625C15.0135 9.83695 15.0132 9.83659 15.0112 9.83659V11.6928ZM15.4778 10.6445V10.6464H13.6216V10.6445H15.4778ZM15.4778 10.6464C15.4778 11.1555 15.2781 11.64 14.9167 12.0004L13.6059 10.6861C13.6125 10.6795 13.6158 10.6738 13.6177 10.6692C13.6196 10.6646 13.6216 10.6574 13.6216 10.6464H15.4778ZM14.9175 11.9995C14.5574 12.3597 14.0738 12.5598 13.5645 12.5598V10.7036C13.5751 10.7036 13.5821 10.7017 13.5869 10.6997C13.5916 10.6978 13.5978 10.6943 13.605 10.687L14.9175 11.9995ZM13.5645 12.5598C13.2183 12.5598 12.9093 12.463 12.6532 12.3235L13.5409 10.6933C13.553 10.6999 13.5607 10.7024 13.5637 10.7032C13.5663 10.704 13.5661 10.7036 13.5645 10.7036V12.5598ZM14.0236 11.5626C13.9969 12.0194 13.8116 12.4624 13.4711 12.8032L12.1579 11.4914C12.1614 11.488 12.1633 11.4849 12.165 11.4811C12.1669 11.4769 12.1697 11.4684 12.1706 11.4542L14.0236 11.5626ZM13.4708 12.8036C13.1105 13.1638 12.6269 13.3639 12.1175 13.3639V11.5077C12.1283 11.5077 12.1354 11.5057 12.1401 11.5038C12.1449 11.5018 12.151 11.4983 12.1583 11.4911L13.4708 12.8036ZM12.1175 13.3639C11.0929 13.3639 10.2707 12.5597 10.2115 11.5633L12.0645 11.4532C12.0654 11.469 12.0719 11.4828 12.0833 11.4937C12.0889 11.4991 12.0945 11.5025 12.0994 11.5045C12.1037 11.5062 12.1092 11.5077 12.1175 11.5077V13.3639ZM11.5793 12.3247C11.2795 12.4867 10.9241 12.5802 10.5444 12.5558L10.6634 10.7034C10.6634 10.7034 10.6654 10.7036 10.6703 10.7025C10.6755 10.7012 10.6846 10.6983 10.6967 10.6918L11.5793 12.3247ZM10.5431 12.5557C9.51264 12.4881 8.75724 11.6118 8.75724 10.6161H10.6134C10.6134 10.6475 10.6248 10.6716 10.6391 10.6874C10.653 10.7028 10.6625 10.7034 10.6646 10.7035L10.5431 12.5557ZM8.75724 10.6161V6.18447H10.6134V10.6161H8.75724ZM10.4891 6.64844L9.98451 7.52268L8.37691 6.59474L8.88154 5.72051L10.4891 6.64844ZM9.98535 7.52121C9.62673 8.14513 8.95919 8.52879 8.24136 8.52879V6.67261C8.29827 6.67261 8.3503 6.64105 8.37607 6.59621L9.98535 7.52121ZM8.24136 8.52879C7.89039 8.52879 7.54491 8.43676 7.23959 8.26181L8.16243 6.65128C8.18739 6.66559 8.21482 6.67261 8.24136 6.67261V8.52879ZM7.23553 8.25947C6.81884 8.0179 6.51555 7.62478 6.39045 7.15656L8.18373 6.67743C8.18289 6.67426 8.18057 6.66866 8.1761 6.66284C8.17167 6.65705 8.16756 6.65425 8.1665 6.65363L7.23553 8.25947ZM6.39073 7.1576C6.26514 6.68974 6.33089 6.19628 6.57314 5.77792L8.17947 6.70803C8.18079 6.70575 8.18311 6.70045 8.18411 6.69295C8.1851 6.68543 8.18427 6.67943 8.18345 6.67639L6.39073 7.1576ZM7.3763 5.31488C6.92104 5.43421 6.58028 5.7658 6.57773 5.77008C6.57688 5.77151 6.57562 5.77366 6.57522 5.77434C6.57499 5.77474 6.57459 5.77541 6.57446 5.77564C6.57438 5.77579 6.57421 5.77608 6.57416 5.77615C6.57403 5.77637 6.57407 5.7763 6.57442 5.7757C6.57506 5.77461 6.57611 5.77278 6.57765 5.77012C6.5807 5.76485 6.58528 5.75692 6.59133 5.74645C6.60342 5.72555 6.62117 5.69481 6.64384 5.65556C6.68918 5.57709 6.75405 5.46476 6.83223 5.32938C6.98858 5.05865 7.19809 4.69583 7.41075 4.32751C7.83677 3.58965 8.27353 2.833 8.323 2.74674L9.93318 3.67019C9.88193 3.75954 9.44289 4.52015 9.01823 5.25563C8.80555 5.624 8.59601 5.98687 8.43962 6.25767C8.36143 6.39306 8.29652 6.50545 8.25114 6.58401C8.22846 6.62328 8.21063 6.65414 8.19846 6.67519C8.19239 6.6857 8.18768 6.69385 8.18446 6.69941C8.18287 6.70216 8.18156 6.70444 8.18059 6.7061C8.18015 6.70687 8.17959 6.70784 8.17905 6.70875C8.17886 6.70909 8.17826 6.71012 8.17755 6.71134C8.17709 6.71211 8.17579 6.71433 8.17492 6.7158C8.17235 6.72012 7.83157 7.05173 7.3763 7.17106V5.31488ZM8.28283 2.82521C8.29304 2.80268 8.32541 2.73003 8.35519 2.66308L10.0512 3.41734C10.0229 3.48093 9.98708 3.56145 9.97335 3.59172L8.28283 2.82521ZM8.35519 2.66307C8.36809 2.63407 8.38236 2.59701 8.40275 2.53952L10.1522 3.15978C10.127 3.23087 10.0937 3.32172 10.0512 3.41735L8.35519 2.66307ZM8.40266 2.53977C9.03125 0.765159 10.6134 -0.357105 12.4949 -0.357105V1.49908C11.4028 1.49908 10.5195 2.12302 10.1523 3.15953L8.40266 2.53977ZM12.4949 -0.357105C15.0075 -0.357105 16.9244 1.83383 16.9244 4.36776H15.0682C15.0682 2.71457 13.8436 1.49908 12.4949 1.49908V-0.357105ZM16.9244 4.36773L16.9245 9.77923L15.0683 9.77928L15.0682 4.36779L16.9244 4.36773ZM16.9245 9.77925C16.9245 10.2882 16.7248 10.7715 16.3652 11.1319L15.0514 9.82059C15.0588 9.81324 15.0623 9.80699 15.0643 9.80211C15.0664 9.79724 15.0683 9.79007 15.0683 9.77925H16.9245ZM16.3645 11.1325C16.0043 11.4928 15.5207 11.6928 15.0112 11.6928V9.83661C15.0221 9.83661 15.0292 9.83463 15.0339 9.83267C15.0387 9.83071 15.0448 9.82722 15.052 9.81998L16.3645 11.1325ZM14.5248 9.97429L14.5248 9.97426L15.4976 11.5551L15.4976 11.5551L14.5248 9.97429ZM12.4949 2.02262C11.6125 2.02262 10.9434 2.49467 10.6458 3.33466L8.89615 2.71482C9.45491 1.13757 10.8223 0.166438 12.4949 0.166438V2.02262ZM10.6451 3.33666C10.6158 3.41876 10.5777 3.52244 10.5296 3.63047L8.83388 2.87556C8.85237 2.83403 8.87138 2.78422 8.89686 2.71282L10.6451 3.33666ZM10.5294 3.63096C10.4869 3.72629 10.4513 3.80679 10.424 3.86131C10.4071 3.89516 10.3798 3.94731 10.3401 4.00508C10.2998 4.06361 10.2601 4.10776 10.2568 4.11146L8.85904 2.89016C8.86122 2.88766 8.8605 2.88847 8.8594 2.88975C8.85799 2.8914 8.85438 2.8956 8.84965 2.90137C8.84475 2.90735 8.83857 2.91507 8.83162 2.92424C8.82459 2.9335 8.81745 2.94335 8.81031 2.95374C8.79577 2.9749 8.78457 2.99343 8.77661 3.00745C8.76918 3.02053 8.76463 3.02959 8.76361 3.03163C8.76256 3.03373 8.76322 3.03249 8.76637 3.02574C8.76943 3.0192 8.77375 3.00978 8.77996 2.99606C8.78612 2.98247 8.79349 2.96605 8.80256 2.94576C8.81162 2.9255 8.82197 2.90228 8.8341 2.87507L10.5294 3.63096ZM8.95132 4.20321L8.94771 4.2001L10.1609 2.79529L10.1646 2.79841L8.95132 4.20321ZM10.3744 3.9323C10.2291 4.20637 9.81444 4.9241 8.6333 6.96917L7.02594 6.04082C8.22368 3.96703 8.60994 3.29772 8.73428 3.06309L10.3744 3.9323ZM8.63292 6.96983C8.70718 6.8415 8.72788 6.68666 8.68968 6.54294L6.89577 7.0197C6.80771 6.68838 6.85432 6.3374 7.02633 6.04016L8.63292 6.96983ZM8.6889 6.54005C8.65071 6.39819 8.55685 6.27413 8.42629 6.19877L7.49829 7.80632C7.20014 7.63421 6.98524 7.35206 6.89654 7.0226L8.6889 6.54005ZM8.42456 6.19777C8.31892 6.13709 8.21617 6.13749 8.14522 6.15659C8.07454 6.17562 7.98392 6.22716 7.92189 6.33525L9.53177 7.25921C9.12729 7.96397 8.20289 8.21105 7.50003 7.80732L8.42456 6.19777ZM7.92316 6.33304L8.91679 4.61274L10.5241 5.54112L9.5305 7.26142L7.92316 6.33304ZM8.91736 4.61176C9.18543 4.14895 9.73259 3.91733 10.2575 4.05939L9.77252 5.85111C10.0671 5.93085 10.3742 5.79992 10.5236 5.5421L8.91736 4.61176ZM10.2552 4.05877C10.7758 4.19826 11.1371 4.6701 11.1371 5.20812H9.2809C9.2809 5.50934 9.48308 5.77357 9.77482 5.85173L10.2552 4.05877ZM11.1371 5.20812V10.6163H9.2809V5.20812H11.1371ZM11.1371 10.6163C11.1371 10.5105 11.0979 10.4144 11.0336 10.3408C10.9694 10.2673 10.8561 10.1915 10.6991 10.1811L10.5772 12.0333C9.79595 11.9819 9.2809 11.3013 9.2809 10.6163H11.1371ZM10.6872 10.1804C10.5775 10.1746 10.4436 10.2148 10.3418 10.3164L11.6532 11.6301C11.3602 11.9226 10.9717 12.0543 10.5892 12.034L10.6872 10.1804ZM10.3412 10.317C10.2531 10.4051 10.2042 10.5257 10.2042 10.6467H12.0604C12.0604 11.0154 11.9157 11.3676 11.6537 11.6295L10.3412 10.317ZM10.2042 10.6467V7.10976H12.0604V10.6467H10.2042ZM10.2042 7.10976C10.2042 6.45254 10.737 5.91977 11.3942 5.91977V7.77595C11.7621 7.77595 12.0604 7.47769 12.0604 7.10976H10.2042ZM11.3942 5.91977C12.051 5.91977 12.5842 6.45201 12.5842 7.10976H10.728C10.728 7.47789 11.0266 7.77595 11.3942 7.77595V5.91977ZM12.5842 7.10979L12.584 11.4507L10.7278 11.4507L10.728 7.10972L12.5842 7.10979ZM12.584 11.4507C12.584 11.1926 12.3756 10.9842 12.1175 10.9842V12.8404C11.3505 12.8404 10.7278 12.2178 10.7278 11.4507H12.584ZM12.1175 10.9842C11.9968 10.9842 11.8767 11.0329 11.7888 11.1206L13.1 12.4344C12.8379 12.696 12.4856 12.8404 12.1175 12.8404V10.9842ZM11.7875 11.1219C11.6998 11.2098 11.6511 11.3299 11.6511 11.4507H13.5073C13.5073 11.8188 13.3628 12.1711 13.1013 12.4332L11.7875 11.1219ZM11.6511 11.4507V7.10975H13.5073V11.4507H11.6511ZM11.6511 7.10975C11.6511 6.45293 12.1833 5.91976 12.8411 5.91976V7.77595C13.2092 7.77595 13.5073 7.4773 13.5073 7.10975H11.6511ZM12.8411 5.91976C13.4979 5.91976 14.0311 6.452 14.0311 7.10975H12.1749C12.1749 7.4779 12.4735 7.77595 12.8411 7.77595V5.91976ZM14.0311 7.1098L14.0309 10.6061L12.1747 10.606L12.1749 7.10971L14.0311 7.1098ZM14.0309 10.6061V10.6467H12.1747V10.6061H14.0309ZM14.0309 10.6467C14.0309 10.3881 13.8221 10.1801 13.5646 10.1801V12.0363C12.7978 12.0363 12.1747 11.4141 12.1747 10.6467H14.0309ZM13.5646 10.1801C13.4413 10.1801 13.3219 10.2303 13.2364 10.3154L14.5465 11.6304C14.2859 11.89 13.9349 12.0363 13.5646 12.0363V10.1801ZM13.2358 10.316C13.147 10.4046 13.0982 10.5257 13.0982 10.6466H14.9544C14.9544 11.015 14.8097 11.3677 14.5471 11.6298L13.2358 10.316ZM13.0982 10.6466V7.10957H14.9544V10.6466H13.0982ZM13.0982 7.10957C13.0982 6.45273 13.6304 5.91958 14.2882 5.91958V7.77577C14.6563 7.77577 14.9544 7.47713 14.9544 7.10957H13.0982ZM14.2882 5.91958C14.945 5.91958 15.4781 6.45182 15.4781 7.10957H13.622C13.622 7.47771 13.9206 7.77577 14.2882 7.77577V5.91958ZM15.4781 7.10968L15.4778 9.77949L13.6216 9.77926L13.622 7.10945L15.4781 7.10968ZM15.4778 9.77938C15.4778 9.52192 15.2699 9.31309 15.0112 9.31309V11.1693C14.2438 11.1693 13.6216 10.5462 13.6216 9.77938H15.4778ZM15.0112 9.31309C14.8894 9.31309 14.7693 9.36238 14.6821 9.4495L15.9933 10.7633C15.7322 11.0239 15.3806 11.1693 15.0112 11.1693V9.31309ZM14.6814 9.45012C14.5931 9.5385 14.5446 9.65911 14.5446 9.77938H16.4008C16.4008 10.1469 16.2568 10.4998 15.994 10.7626L14.6814 9.45012ZM14.5446 9.77935L14.5447 4.36786L16.4009 4.36792L16.4008 9.77941L14.5446 9.77935ZM14.5447 4.36789C14.5447 2.99115 13.5437 2.02268 12.4949 2.02268V0.166492C14.7302 0.166492 16.4009 2.13517 16.4009 4.36789H14.5447ZM11.6025 0.839618L11.6025 0.839564L13.3873 1.3495L13.3873 1.34955L11.6025 0.839618Z" fill="#4CAF4F" mask="url(#path-1-inside-1_211_2339)"/>
<path d="M3.63098 12.5526L3.57922 12.5253C3.56695 12.5474 3.5325 12.6093 3.48157 12.701C3.49966 12.7101 3.51798 12.7176 3.53625 12.7245C3.5674 12.6684 3.59863 12.6109 3.63098 12.5526Z" fill="#4CAF4F" stroke="#4CAF4F" stroke-width="0.928093"/>
<mask id="path-4-inside-2_211_2339" fill="white">
<path d="M22.8812 19.8226C22.3979 20.6287 21.6031 21.1803 20.6429 21.3765C19.6912 21.5705 18.6904 21.3916 17.8242 20.8722L13.1835 18.0883C12.9577 17.9528 12.7979 17.7377 12.734 17.4821C12.6705 17.2271 12.7102 16.9623 12.8455 16.7366C12.9299 16.5956 13.0483 16.4844 13.1856 16.4022L13.1843 16.4014C12.9585 16.266 12.7988 16.0508 12.7351 15.7956C12.6712 15.5405 12.7109 15.2754 12.8463 15.0495C12.9336 14.9043 13.0531 14.7909 13.1896 14.7103C12.9915 14.5741 12.8488 14.3761 12.7901 14.1413C12.7261 13.8859 12.7658 13.6211 12.9013 13.3954C13.0366 13.1696 13.2519 13.01 13.5071 12.9463C13.5868 12.9262 13.6676 12.9164 13.7476 12.9164C13.9047 12.9166 14.0589 12.9564 14.2006 13.0305C14.2093 12.847 14.2639 12.6668 14.3711 12.5122C14.6652 12.0879 15.2542 11.9705 15.7131 12.2458L19.5133 14.5253L19.0235 13.643C18.8355 13.3062 18.8424 12.8906 19.0417 12.5584C19.1387 12.3967 19.2775 12.2624 19.4433 12.1694C19.5796 12.094 19.7272 12.0582 19.8728 12.0582C20.1855 12.0584 20.4892 12.2233 20.6509 12.5154C21.2144 13.5307 22.2777 15.4455 22.3525 15.5792C22.3684 15.6023 22.4164 15.6712 22.4576 15.7297C22.4968 15.7853 22.5391 15.8384 22.5829 15.8912C23.5318 17.0415 23.6462 18.5477 22.8812 19.8227L22.8812 19.8226ZM22.1789 16.225C22.1267 16.1619 22.0755 16.0974 22.029 16.031C21.8873 15.8299 21.8837 15.8247 21.873 15.772C21.7074 15.498 21.3033 14.7706 20.1926 12.7695C20.0952 12.5938 19.8738 12.5297 19.6975 12.6271C19.6107 12.6757 19.541 12.7434 19.4902 12.8282C19.3872 12.9999 19.3833 13.2144 19.4805 13.3886L20.4445 15.1254C20.502 15.2291 20.4829 15.3583 20.3977 15.4406C20.3128 15.5231 20.1829 15.5375 20.0809 15.4768L15.4436 12.6949C15.225 12.5638 14.9368 12.6152 14.8017 12.8103C14.724 12.9225 14.6992 13.0563 14.7317 13.187C14.7615 13.3064 14.8365 13.4071 14.9426 13.4707C14.9429 13.4709 14.9431 13.4712 14.9434 13.4714L17.9755 15.2904C18.0994 15.3648 18.1396 15.5255 18.0652 15.6497C17.9907 15.7735 17.8302 15.814 17.7059 15.7394L13.9834 13.5063C13.8778 13.443 13.7535 13.4243 13.6341 13.4543C13.5144 13.4842 13.4137 13.5589 13.3502 13.6651C13.2866 13.7708 13.2682 13.895 13.2977 14.0144C13.3276 14.1337 13.4025 14.2346 13.5085 14.2982L14.2328 14.7327L17.2308 16.5313C17.3547 16.6058 17.3949 16.7665 17.3205 16.8906C17.246 17.0145 17.0855 17.0548 16.9612 16.9803L13.9285 15.1608C13.7104 15.0296 13.4263 15.1008 13.2951 15.3193C13.2315 15.4252 13.2131 15.5493 13.2426 15.6687C13.2725 15.7881 13.3474 15.8888 13.4535 15.9526L14.1971 16.3987L16.4862 17.7721C16.6102 17.8465 16.6504 18.0073 16.5759 18.1314C16.5015 18.2552 16.3409 18.2959 16.2166 18.2211L13.9275 16.8477C13.8219 16.7844 13.6981 16.7657 13.578 16.7957C13.4586 16.8255 13.3576 16.9003 13.2941 17.0061C13.2307 17.112 13.2121 17.2363 13.2417 17.3555C13.2715 17.4749 13.3465 17.5756 13.4526 17.6394L18.0933 20.4233C18.8463 20.8751 19.7148 21.0316 20.5377 20.8636C21.3521 20.6974 22.0248 20.2321 22.4319 19.5535C23.0896 18.4577 22.995 17.2133 22.1791 16.225L22.1789 16.225Z"/>
</mask>
<path d="M22.8812 19.8226C22.3979 20.6287 21.6031 21.1803 20.6429 21.3765C19.6912 21.5705 18.6904 21.3916 17.8242 20.8722L13.1835 18.0883C12.9577 17.9528 12.7979 17.7377 12.734 17.4821C12.6705 17.2271 12.7102 16.9623 12.8455 16.7366C12.9299 16.5956 13.0483 16.4844 13.1856 16.4022L13.1843 16.4014C12.9585 16.266 12.7988 16.0508 12.7351 15.7956C12.6712 15.5405 12.7109 15.2754 12.8463 15.0495C12.9336 14.9043 13.0531 14.7909 13.1896 14.7103C12.9915 14.5741 12.8488 14.3761 12.7901 14.1413C12.7261 13.8859 12.7658 13.6211 12.9013 13.3954C13.0366 13.1696 13.2519 13.01 13.5071 12.9463C13.5868 12.9262 13.6676 12.9164 13.7476 12.9164C13.9047 12.9166 14.0589 12.9564 14.2006 13.0305C14.2093 12.847 14.2639 12.6668 14.3711 12.5122C14.6652 12.0879 15.2542 11.9705 15.7131 12.2458L19.5133 14.5253L19.0235 13.643C18.8355 13.3062 18.8424 12.8906 19.0417 12.5584C19.1387 12.3967 19.2775 12.2624 19.4433 12.1694C19.5796 12.094 19.7272 12.0582 19.8728 12.0582C20.1855 12.0584 20.4892 12.2233 20.6509 12.5154C21.2144 13.5307 22.2777 15.4455 22.3525 15.5792C22.3684 15.6023 22.4164 15.6712 22.4576 15.7297C22.4968 15.7853 22.5391 15.8384 22.5829 15.8912C23.5318 17.0415 23.6462 18.5477 22.8812 19.8227L22.8812 19.8226ZM22.1789 16.225C22.1267 16.1619 22.0755 16.0974 22.029 16.031C21.8873 15.8299 21.8837 15.8247 21.873 15.772C21.7074 15.498 21.3033 14.7706 20.1926 12.7695C20.0952 12.5938 19.8738 12.5297 19.6975 12.6271C19.6107 12.6757 19.541 12.7434 19.4902 12.8282C19.3872 12.9999 19.3833 13.2144 19.4805 13.3886L20.4445 15.1254C20.502 15.2291 20.4829 15.3583 20.3977 15.4406C20.3128 15.5231 20.1829 15.5375 20.0809 15.4768L15.4436 12.6949C15.225 12.5638 14.9368 12.6152 14.8017 12.8103C14.724 12.9225 14.6992 13.0563 14.7317 13.187C14.7615 13.3064 14.8365 13.4071 14.9426 13.4707C14.9429 13.4709 14.9431 13.4712 14.9434 13.4714L17.9755 15.2904C18.0994 15.3648 18.1396 15.5255 18.0652 15.6497C17.9907 15.7735 17.8302 15.814 17.7059 15.7394L13.9834 13.5063C13.8778 13.443 13.7535 13.4243 13.6341 13.4543C13.5144 13.4842 13.4137 13.5589 13.3502 13.6651C13.2866 13.7708 13.2682 13.895 13.2977 14.0144C13.3276 14.1337 13.4025 14.2346 13.5085 14.2982L14.2328 14.7327L17.2308 16.5313C17.3547 16.6058 17.3949 16.7665 17.3205 16.8906C17.246 17.0145 17.0855 17.0548 16.9612 16.9803L13.9285 15.1608C13.7104 15.0296 13.4263 15.1008 13.2951 15.3193C13.2315 15.4252 13.2131 15.5493 13.2426 15.6687C13.2725 15.7881 13.3474 15.8888 13.4535 15.9526L14.1971 16.3987L16.4862 17.7721C16.6102 17.8465 16.6504 18.0073 16.5759 18.1314C16.5015 18.2552 16.3409 18.2959 16.2166 18.2211L13.9275 16.8477C13.8219 16.7844 13.6981 16.7657 13.578 16.7957C13.4586 16.8255 13.3576 16.9003 13.2941 17.0061C13.2307 17.112 13.2121 17.2363 13.2417 17.3555C13.2715 17.4749 13.3465 17.5756 13.4526 17.6394L18.0933 20.4233C18.8463 20.8751 19.7148 21.0316 20.5377 20.8636C21.3521 20.6974 22.0248 20.2321 22.4319 19.5535C23.0896 18.4577 22.995 17.2133 22.1791 16.225L22.1789 16.225Z" fill="#4CAF4F"/>
<path d="M22.8812 19.8226L22.5817 18.9442L24.9804 18.1265L23.6772 20.2999L22.8812 19.8226ZM20.6429 21.3765L20.8286 22.2858L20.8283 22.2859L20.6429 21.3765ZM17.8242 20.8722L17.3469 21.6682L17.3467 21.6681L17.8242 20.8722ZM13.1835 18.0883L13.6609 17.2924L13.6609 17.2924L13.1835 18.0883ZM12.734 17.4821L11.8337 17.7075L11.8334 17.7063L12.734 17.4821ZM12.8455 16.7366L13.6417 17.2134L13.6415 17.2139L12.8455 16.7366ZM13.1856 16.4022L13.6775 15.6152L14.9641 16.4194L13.6623 17.1986L13.1856 16.4022ZM13.1843 16.4014L13.6617 15.6055L13.669 15.6099L13.6762 15.6144L13.1843 16.4014ZM12.7351 15.7956L13.6354 15.57L13.6357 15.5711L12.7351 15.7956ZM12.8463 15.0495L12.0503 14.5723L12.0509 14.5713L12.8463 15.0495ZM13.1896 14.7103L13.7156 13.9457L14.9142 14.7702L13.6612 15.5096L13.1896 14.7103ZM12.7901 14.1413L13.6904 13.9158L13.6905 13.9162L12.7901 14.1413ZM12.9013 13.3954L13.6974 13.8724L13.697 13.8731L12.9013 13.3954ZM13.5071 12.9463L13.733 13.8464L13.7321 13.8466L13.5071 12.9463ZM13.7476 12.9164V11.9883L13.7486 11.9883L13.7476 12.9164ZM14.2006 13.0305L15.1276 13.0745L15.0588 14.527L13.7703 13.8529L14.2006 13.0305ZM14.3711 12.5122L15.1339 13.0408L15.1338 13.041L14.3711 12.5122ZM15.7131 12.2458L15.2357 13.0417L15.2356 13.0417L15.7131 12.2458ZM19.5133 14.5253L20.3247 14.0748L22.0058 17.1026L19.0359 15.3212L19.5133 14.5253ZM19.0235 13.643L19.8339 13.1908L19.8349 13.1925L19.0235 13.643ZM19.0417 12.5584L18.2457 12.0811L18.246 12.0806L19.0417 12.5584ZM19.4433 12.1694L18.9893 11.3599L18.9938 11.3574L19.4433 12.1694ZM19.8728 12.0582V11.1301L19.8732 11.1301L19.8728 12.0582ZM20.6509 12.5154L19.8394 12.9658L19.8389 12.9649L20.6509 12.5154ZM22.3525 15.5792L21.5878 16.1052L21.5635 16.0698L21.5425 16.0322L22.3525 15.5792ZM22.4576 15.7297L21.6991 16.2645L21.6984 16.2635L22.4576 15.7297ZM22.5829 15.8912L23.2973 15.2988L23.2988 15.3006L22.5829 15.8912ZM22.8812 19.8227L23.1807 20.7011L20.7808 21.5192L22.0854 19.3451L22.8812 19.8227ZM22.1789 16.225L22.2708 17.1485L21.7784 17.1975L21.4633 16.816L22.1789 16.225ZM22.029 16.031L22.7876 15.4964L22.7888 15.4981L22.029 16.031ZM21.873 15.772L22.6673 15.292L22.7507 15.4299L22.7826 15.5878L21.873 15.772ZM20.1926 12.7695L19.3811 13.2199L19.381 13.2196L20.1926 12.7695ZM19.6975 12.6271L19.2443 11.8172L19.2486 11.8148L19.6975 12.6271ZM19.4902 12.8282L20.2862 13.3054L20.2861 13.3056L19.4902 12.8282ZM19.4805 13.3886L20.2909 12.9361L20.292 12.9382L19.4805 13.3886ZM20.4445 15.1254L19.6331 15.576L19.633 15.5758L20.4445 15.1254ZM20.3977 15.4406L19.7512 14.7748L19.7525 14.7735L20.3977 15.4406ZM20.0809 15.4768L19.6064 16.2745L19.6035 16.2727L20.0809 15.4768ZM15.4436 12.6949L15.9207 11.8988L15.921 11.899L15.4436 12.6949ZM14.8017 12.8103L15.5647 13.3387L15.5645 13.3389L14.8017 12.8103ZM14.7317 13.187L13.8313 13.4121L13.831 13.4108L14.7317 13.187ZM14.9426 13.4707L14.5274 14.3008L14.4957 14.2849L14.4653 14.2667L14.9426 13.4707ZM14.9434 13.4714L15.3585 12.6413L15.3903 12.6572L15.4208 12.6755L14.9434 13.4714ZM17.9755 15.2904L18.4529 14.4945L18.4533 14.4947L17.9755 15.2904ZM18.0652 15.6497L18.8611 16.127L18.8605 16.1279L18.0652 15.6497ZM17.7059 15.7394L18.1833 14.9435L18.1835 14.9436L17.7059 15.7394ZM13.9834 13.5063L14.4605 12.7103L14.4608 12.7104L13.9834 13.5063ZM13.6341 13.4543L13.8603 14.3544L13.8586 14.3548L13.6341 13.4543ZM13.3502 13.6651L14.1467 14.1415L14.1455 14.1435L13.3502 13.6651ZM13.2977 14.0144L12.3974 14.2394L12.3968 14.2371L13.2977 14.0144ZM13.5085 14.2982L13.0311 15.0941L13.0306 15.0938L13.5085 14.2982ZM14.2328 14.7327L14.7102 13.9367L14.7103 13.9368L14.2328 14.7327ZM17.2308 16.5313L17.7083 15.7355L17.7086 15.7357L17.2308 16.5313ZM17.3205 16.8906L18.1164 17.368L18.1158 17.3689L17.3205 16.8906ZM16.9612 16.9803L16.4843 17.7765L16.4837 17.7762L16.9612 16.9803ZM13.9285 15.1608L13.451 15.9567L13.4501 15.9561L13.9285 15.1608ZM13.2951 15.3193L14.0907 15.7971L14.0907 15.7971L13.2951 15.3193ZM13.2426 15.6687L12.3423 15.8938L12.3417 15.8915L13.2426 15.6687ZM13.4535 15.9526L12.9761 16.7485L12.9753 16.748L13.4535 15.9526ZM14.1971 16.3987L14.6745 15.6028L14.6746 15.6028L14.1971 16.3987ZM16.4862 17.7721L16.9637 16.9763L16.964 16.9764L16.4862 17.7721ZM16.5759 18.1314L17.3719 18.6088L17.3713 18.6097L16.5759 18.1314ZM16.2166 18.2211L16.6941 17.4253L16.6951 17.4258L16.2166 18.2211ZM13.9275 16.8477L14.4046 16.0516L14.405 16.0518L13.9275 16.8477ZM13.578 16.7957L13.3529 15.8953L13.3529 15.8953L13.578 16.7957ZM13.2941 17.0061L12.498 16.5291L12.4983 16.5286L13.2941 17.0061ZM13.2417 17.3555L12.3413 17.5806L12.3408 17.5786L13.2417 17.3555ZM13.4526 17.6394L12.9751 18.4353L12.9743 18.4348L13.4526 17.6394ZM18.0933 20.4233L18.5707 19.6275L18.5707 19.6275L18.0933 20.4233ZM20.5377 20.8636L20.7234 21.773L20.7233 21.773L20.5377 20.8636ZM22.4319 19.5535L21.6359 19.0761L21.6361 19.0759L22.4319 19.5535ZM22.1791 16.225L22.0872 15.3014L22.5798 15.2524L22.8949 15.6341L22.1791 16.225ZM23.6772 20.2999C23.0537 21.3398 22.0314 22.0401 20.8286 22.2858L20.4571 20.4672C21.1748 20.3206 21.7422 19.9175 22.0852 19.3454L23.6772 20.2999ZM20.8283 22.2859C19.6397 22.5282 18.4035 22.3017 17.3469 21.6682L18.3014 20.0762C18.9773 20.4815 19.7428 20.6128 20.4575 20.4671L20.8283 22.2859ZM17.3467 21.6681L12.706 18.8841L13.6609 17.2924L18.3016 20.0763L17.3467 21.6681ZM12.7061 18.8842C12.2696 18.6224 11.9575 18.2022 11.8337 17.7075L13.6343 17.2568C13.6368 17.2669 13.6403 17.2731 13.6434 17.2773C13.6466 17.2815 13.6517 17.2869 13.6609 17.2924L12.7061 18.8842ZM11.8334 17.7063C11.7104 17.2123 11.7882 16.6952 12.0495 16.2594L13.6415 17.2139C13.6359 17.2231 13.6339 17.2304 13.6331 17.2357C13.6323 17.2411 13.6322 17.2482 13.6346 17.258L11.8334 17.7063ZM12.0492 16.2598C12.2213 15.9724 12.4565 15.757 12.709 15.6059L13.6623 17.1986C13.651 17.2054 13.645 17.2106 13.6425 17.213C13.6404 17.2151 13.6407 17.2152 13.6417 17.2134L12.0492 16.2598ZM12.6937 17.1893L12.6924 17.1884L13.6762 15.6144L13.6775 15.6152L12.6937 17.1893ZM12.7069 17.1973C12.2706 16.9356 11.9581 16.5154 11.8346 16.0201L13.6357 15.5711C13.638 15.5805 13.6413 15.5865 13.6443 15.5905C13.6474 15.5946 13.6525 15.6 13.6617 15.6055L12.7069 17.1973ZM11.8349 16.0213C11.7108 15.5261 11.7889 15.0084 12.0503 14.5723L13.6423 15.5267C13.6367 15.5361 13.6346 15.5434 13.6339 15.5485C13.6331 15.5537 13.633 15.5605 13.6354 15.57L11.8349 16.0213ZM12.0509 14.5713C12.2222 14.2863 12.4563 14.0654 12.7179 13.911L13.6612 15.5096C13.6552 15.5132 13.6511 15.5165 13.6484 15.5192C13.6459 15.5217 13.6438 15.5243 13.6418 15.5276L12.0509 14.5713ZM12.6636 15.475C12.2887 15.2171 12.006 14.8317 11.8897 14.3664L13.6905 13.9162C13.6916 13.9206 13.693 13.9237 13.6954 13.9271C13.698 13.9308 13.7038 13.9376 13.7156 13.9457L12.6636 15.475ZM11.8898 14.3668C11.7658 13.8717 11.8437 13.354 12.1055 12.9178L13.697 13.8731C13.6915 13.8823 13.6895 13.8893 13.6888 13.8942C13.6881 13.8992 13.6879 13.906 13.6904 13.9158L11.8898 14.3668ZM12.1051 12.9184C12.3671 12.4812 12.7879 12.1694 13.282 12.0459L13.7321 13.8466C13.7222 13.8491 13.716 13.8526 13.7119 13.8556C13.7078 13.8587 13.7027 13.8636 13.6974 13.8724L12.1051 12.9184ZM13.2811 12.0461C13.4348 12.0075 13.5916 11.9883 13.7476 11.9883V13.8445C13.7436 13.8445 13.7387 13.845 13.733 13.8464L13.2811 12.0461ZM13.7486 11.9883C14.0639 11.9886 14.3645 12.0689 14.6308 12.2082L13.7703 13.8529C13.7615 13.8483 13.7552 13.8462 13.7517 13.8453C13.7483 13.8445 13.7468 13.8445 13.7467 13.8445L13.7486 11.9883ZM13.2735 12.9866C13.2895 12.6491 13.3913 12.2965 13.6085 11.9833L15.1338 13.041C15.1365 13.0371 15.129 13.045 15.1276 13.0745L13.2735 12.9866ZM13.6083 11.9835C14.1962 11.1353 15.3359 10.9372 16.1906 11.45L15.2356 13.0417C15.2085 13.0254 15.182 13.0228 15.1612 13.0269C15.1409 13.031 15.1353 13.0389 15.1339 13.0408L13.6083 11.9835ZM16.1905 11.4499L19.9907 13.7294L19.0359 15.3212L15.2357 13.0417L16.1905 11.4499ZM18.7019 14.9758L18.212 14.0935L19.8349 13.1925L20.3247 14.0748L18.7019 14.9758ZM18.213 14.0952C17.8624 13.4669 17.8764 12.6969 18.2457 12.0811L19.8376 13.0357C19.8084 13.0844 19.8086 13.1455 19.8339 13.1908L18.213 14.0952ZM18.246 12.0806C18.427 11.7792 18.6841 11.5311 18.9893 11.3599L19.8973 12.9789C19.8709 12.9937 19.8505 13.0142 19.8374 13.0361L18.246 12.0806ZM18.9938 11.3574C19.2715 11.2037 19.5744 11.1301 19.8728 11.1301V12.9863C19.876 12.9863 19.8796 12.9859 19.8835 12.9849C19.8876 12.9839 19.8908 12.9825 19.8928 12.9814L18.9938 11.3574ZM19.8732 11.1301C20.5075 11.1304 21.1303 11.465 21.4629 12.066L19.8389 12.9649C19.8404 12.9675 19.8428 12.971 19.8462 12.9744C19.8495 12.9777 19.8528 12.9802 19.8558 12.9819C19.861 12.9849 19.8663 12.9863 19.8723 12.9863L19.8732 11.1301ZM21.4624 12.0651C22.0265 13.0816 23.0887 14.9942 23.1625 15.1261L21.5425 16.0322C21.4667 15.8968 20.4022 13.9799 19.8394 12.9658L21.4624 12.0651ZM23.1171 15.0531C23.1302 15.0722 23.176 15.1379 23.2168 15.1959L21.6984 16.2635C21.6568 16.2044 21.6065 16.1324 21.5878 16.1052L23.1171 15.0531ZM23.2161 15.1949C23.2353 15.2221 23.2604 15.2543 23.2973 15.2989L21.8684 16.4836C21.8178 16.4226 21.7583 16.3485 21.6991 16.2645L23.2161 15.1949ZM23.2988 15.3006C24.4967 16.7528 24.6451 18.6868 23.677 20.3002L22.0854 19.3451C22.6473 18.4087 22.5668 17.3302 21.867 16.4818L23.2988 15.3006ZM22.5817 18.9442L22.5817 18.9442L23.1807 20.7011L23.1807 20.7011L22.5817 18.9442ZM21.4633 16.816C21.4046 16.745 21.3359 16.6592 21.2691 16.5639L22.7888 15.4981C22.8151 15.5356 22.8488 15.5787 22.8944 15.6339L21.4633 16.816ZM21.2703 16.5656C21.2119 16.4827 21.1491 16.3947 21.1074 16.3257C21.0795 16.2795 21.0422 16.2121 21.0107 16.1262C20.98 16.0426 20.9664 15.971 20.9634 15.9562L22.7826 15.5878C22.785 15.5994 22.7758 15.5482 22.7532 15.4866C22.7298 15.4228 22.7042 15.3792 22.6963 15.366C22.6925 15.3598 22.6911 15.3578 22.694 15.3622C22.6968 15.3664 22.7017 15.3737 22.71 15.3858C22.7274 15.4108 22.7512 15.4446 22.7876 15.4964L21.2703 16.5656ZM21.0787 16.2521C20.9014 15.9588 20.4841 15.207 19.3811 13.2199L21.0041 12.3191C22.1225 14.3341 22.5133 15.0373 22.6673 15.292L21.0787 16.2521ZM19.381 13.2196C19.5312 13.4906 19.8734 13.5903 20.1464 13.4395L19.2486 11.8148C19.8742 11.4691 20.6591 11.6971 21.0042 12.3193L19.381 13.2196ZM20.1507 13.4371C20.2052 13.4065 20.2537 13.3596 20.2862 13.3054L18.6942 12.3509C18.8284 12.1272 19.0163 11.9448 19.2443 11.8172L20.1507 13.4371ZM20.2861 13.3056C20.3526 13.1948 20.3571 13.0547 20.2909 12.9361L18.6702 13.841C18.4095 13.3741 18.4219 12.805 18.6943 12.3508L20.2861 13.3056ZM20.292 12.9382L21.256 14.675L19.633 15.5758L18.669 13.8389L20.292 12.9382ZM21.2558 14.6748C21.5171 15.1453 21.4304 15.733 21.043 16.1077L19.7525 14.7735C19.5354 14.9835 19.4869 15.3128 19.6331 15.576L21.2558 14.6748ZM21.0443 16.1064C20.6538 16.4856 20.0635 16.5464 19.6064 16.2745L20.5554 14.6792C20.3024 14.5287 19.9718 14.5606 19.7512 14.7748L21.0443 16.1064ZM19.6035 16.2727L14.9661 13.4907L15.921 11.899L20.5584 14.681L19.6035 16.2727ZM14.9664 13.4909C15.057 13.5452 15.1592 13.561 15.2552 13.5438C15.3511 13.5266 15.4749 13.4684 15.5647 13.3387L14.0387 12.2819C14.4854 11.6368 15.3348 11.5476 15.9207 11.8988L14.9664 13.4909ZM15.5645 13.3389C15.637 13.2344 15.665 13.0946 15.6324 12.9633L13.831 13.4108C13.7334 13.018 13.811 12.6106 14.0389 12.2817L15.5645 13.3389ZM15.6321 12.9619C15.6017 12.8404 15.5231 12.7367 15.4199 12.6748L14.4653 14.2667C14.1498 14.0775 13.9214 13.7724 13.8313 13.4121L15.6321 12.9619ZM15.3577 12.6406C15.4416 12.6826 15.5032 12.7293 15.5423 12.7624C15.5615 12.7786 15.5763 12.7925 15.5853 12.8011C15.5899 12.8055 15.5935 12.8091 15.5957 12.8113C15.5969 12.8124 15.5978 12.8133 15.5983 12.8139C15.5986 12.8141 15.5988 12.8144 15.599 12.8145C15.5991 12.8146 15.5991 12.8146 15.5992 12.8147C15.5992 12.8147 15.5992 12.8147 15.5992 12.8147C15.5992 12.8147 15.5992 12.8147 15.5992 12.8147C15.5992 12.8147 15.5992 12.8147 15.5992 12.8147C15.5995 12.815 15.5978 12.8133 15.5958 12.8114C15.5937 12.8092 15.59 12.8057 15.5855 12.8013C15.5766 12.7928 15.5618 12.7789 15.5427 12.7627C15.5038 12.7298 15.4422 12.6831 15.3585 12.6413L14.5283 14.3014C14.4444 14.2595 14.3827 14.2128 14.3437 14.1797C14.3245 14.1635 14.3096 14.1495 14.3007 14.1409C14.2961 14.1366 14.2924 14.133 14.2902 14.1308C14.2891 14.1297 14.2882 14.1288 14.2876 14.1282C14.2874 14.1279 14.2871 14.1277 14.287 14.1276C14.2869 14.1275 14.2869 14.1274 14.2868 14.1274C14.2868 14.1274 14.2868 14.1274 14.2868 14.1274C14.2868 14.1273 14.2868 14.1273 14.2868 14.1273C14.2868 14.1273 14.2868 14.1273 14.2868 14.1273C14.2865 14.127 14.2882 14.1287 14.2901 14.1307C14.2923 14.1329 14.2959 14.1364 14.3005 14.1408C14.3094 14.1493 14.3242 14.1632 14.3433 14.1794C14.3822 14.2123 14.4438 14.2589 14.5274 14.3008L15.3577 12.6406ZM15.4208 12.6755L18.4529 14.4945L17.498 16.0862L14.4659 14.2672L15.4208 12.6755ZM18.4533 14.4947C19.0167 14.833 19.199 15.5637 18.8611 16.127L17.2693 15.1723C17.0803 15.4874 17.1822 15.8966 17.4977 16.086L18.4533 14.4947ZM18.8605 16.1279C18.523 16.6892 17.7933 16.8743 17.2282 16.5351L18.1835 14.9436C17.867 14.7537 17.4584 14.8577 17.2698 15.1714L18.8605 16.1279ZM17.2284 16.5352L13.506 14.3022L14.4608 12.7104L18.1833 14.9435L17.2284 16.5352ZM13.5063 14.3024C13.6105 14.3648 13.7391 14.3849 13.8603 14.3544L13.4078 12.5542C13.7679 12.4637 14.1451 12.5212 14.4605 12.7103L13.5063 14.3024ZM13.8586 14.3548C13.9791 14.3248 14.0839 14.2465 14.1467 14.1415L12.5537 13.1886C12.7435 12.8714 13.0496 12.6435 13.4096 12.5538L13.8586 14.3548ZM14.1455 14.1435C14.2092 14.0375 14.2278 13.9093 14.1987 13.7916L12.3968 14.2371C12.3086 13.8806 12.3639 13.5041 12.5549 13.1866L14.1455 14.1435ZM14.1981 13.7893C14.1679 13.6684 14.0898 13.5648 13.9863 13.5026L13.0306 15.0938C12.7152 14.9044 12.4873 14.5991 12.3974 14.2394L14.1981 13.7893ZM13.9858 13.5023L14.7102 13.9367L13.7555 15.5286L13.0311 15.0941L13.9858 13.5023ZM14.7103 13.9368L17.7083 15.7355L16.7533 17.3272L13.7553 15.5285L14.7103 13.9368ZM17.7086 15.7357C18.272 16.074 18.4543 16.8046 18.1164 17.368L16.5246 16.4133C16.3356 16.7284 16.4375 17.1376 16.753 17.327L17.7086 15.7357ZM18.1158 17.3689C17.7778 17.9311 17.0481 18.1143 16.4843 17.7765L17.4381 16.1842C17.1228 15.9953 16.7142 16.0978 16.5251 16.4124L18.1158 17.3689ZM16.4837 17.7762L13.451 15.9567L14.4059 14.365L17.4386 16.1845L16.4837 17.7762ZM13.4501 15.9561C13.673 16.0902 13.9588 16.0168 14.0907 15.7971L12.4995 14.8414C12.8938 14.1849 13.7478 13.9691 14.4068 14.3655L13.4501 15.9561ZM14.0907 15.7971C14.154 15.6918 14.1728 15.5639 14.1436 15.446L12.3417 15.8915C12.2535 15.5348 12.309 15.1586 12.4995 14.8414L14.0907 15.7971ZM14.143 15.4436C14.1126 15.322 14.0341 15.2187 13.9318 15.1572L12.9753 16.748C12.6608 16.5589 12.4324 16.2543 12.3423 15.8938L14.143 15.4436ZM13.931 15.1567L14.6745 15.6028L13.7196 17.1945L12.9761 16.7485L13.931 15.1567ZM14.6746 15.6028L16.9637 16.9763L16.0088 18.5679L13.7196 17.1945L14.6746 15.6028ZM16.964 16.9764C17.5274 17.3148 17.7097 18.0454 17.3719 18.6088L15.78 17.654C15.591 17.9691 15.693 18.3783 16.0084 18.5677L16.964 16.9764ZM17.3713 18.6097C17.0343 19.1701 16.3045 19.3571 15.7382 19.0164L16.6951 17.4258C16.3774 17.2347 15.9687 17.3403 15.7806 17.6531L17.3713 18.6097ZM15.7391 19.017L13.45 17.6435L14.405 16.0518L16.6941 17.4253L15.7391 19.017ZM13.4503 17.6437C13.5549 17.7064 13.6835 17.726 13.8031 17.6961L13.3529 15.8953C13.7126 15.8054 14.0889 15.8624 14.4046 16.0516L13.4503 17.6437ZM13.8031 17.6961C13.9225 17.6662 14.0268 17.5889 14.09 17.4836L12.4983 16.5286C12.6884 16.2118 12.9947 15.9848 13.3529 15.8953L13.8031 17.6961ZM14.0903 17.483C14.1527 17.3789 14.172 17.2516 14.1426 17.1325L12.3408 17.5786C12.2522 17.221 12.3087 16.8451 12.498 16.5291L14.0903 17.483ZM14.142 17.1305C14.1116 17.0088 14.0331 16.9055 13.9308 16.844L12.9743 18.4348C12.6598 18.2457 12.4314 17.9411 12.3413 17.5806L14.142 17.1305ZM13.93 16.8435L18.5707 19.6275L17.6158 21.2192L12.9751 18.4353L13.93 16.8435ZM18.5707 19.6275C19.1347 19.9659 19.7678 20.0735 20.3522 19.9543L20.7233 21.773C19.6618 21.9896 18.5579 21.7844 17.6158 21.2192L18.5707 19.6275ZM20.3521 19.9543C20.926 19.8371 21.3702 19.5191 21.6359 19.0761L23.2278 20.0309C22.6794 20.9451 21.7782 21.5576 20.7234 21.773L20.3521 19.9543ZM21.6361 19.0759C22.0907 18.3186 22.03 17.5022 21.4634 16.8158L22.8949 15.6341C23.96 16.9245 24.0886 18.5968 23.2276 20.0312L21.6361 19.0759ZM22.2711 17.1485L22.2708 17.1485L22.0869 15.3015L22.0872 15.3014L22.2711 17.1485Z" fill="#4CAF4F" mask="url(#path-4-inside-2_211_2339)"/>
</svg>
