<svg width="30" height="24" viewBox="0 0 30 24" fill="none" xmlns="http://www.w3.org/2000/svg">
<path d="M5.0907 0.717285H24.9286C26.0823 0.717285 27.1889 1.176 28.0048 1.9917C28.8206 2.80751 29.2791 3.91415 29.2792 5.06787V18.6411C29.2792 19.7949 28.8206 20.9014 28.0048 21.7173C27.1889 22.5332 26.0824 22.9917 24.9286 22.9917H5.0907C3.93697 22.9916 2.83034 22.5331 2.01453 21.7173C1.19884 20.9014 0.740112 19.7948 0.740112 18.6411V5.06787C0.740172 3.91415 1.19872 2.80751 2.01453 1.9917C2.83034 1.17589 3.93697 0.717345 5.0907 0.717285ZM2.13269 18.6411C2.13269 19.4256 2.44429 20.1781 2.9989 20.7329C3.55364 21.2876 4.30619 21.6 5.0907 21.6001H24.9286C25.7132 21.6001 26.4656 21.2877 27.0204 20.7329C27.5752 20.1781 27.8876 19.4257 27.8876 18.6411V8.37451H2.13269V18.6411ZM20.2303 15.3354H23.3632C23.5476 15.3356 23.7249 15.4081 23.8553 15.5386C23.9858 15.669 24.0584 15.8463 24.0585 16.0308C24.0585 16.2152 23.9856 16.3925 23.8553 16.5229C23.7249 16.6534 23.5476 16.7269 23.3632 16.7271H20.2303C20.0458 16.727 19.8687 16.6535 19.7382 16.5229C19.6078 16.3924 19.5341 16.2153 19.5341 16.0308C19.5342 15.8463 19.6077 15.669 19.7382 15.5386C19.8687 15.4082 20.0458 15.3355 20.2303 15.3354ZM5.0907 2.10986C4.30619 2.10992 3.55364 2.42134 2.9989 2.97607C2.44417 3.53081 2.13275 4.28336 2.13269 5.06787V6.98193H27.8876V5.06787C27.8875 4.28336 27.5751 3.53081 27.0204 2.97607C26.4656 2.42146 25.713 2.10986 24.9286 2.10986H5.0907Z" fill="#4CAF4F" stroke="#4CAF4F" stroke-width="0.696069"/>
</svg>
