<svg width="34" height="22" viewBox="0 0 34 22" fill="none" xmlns="http://www.w3.org/2000/svg">
<path d="M11.4102 0.386719C13.0518 0.386819 14.6539 0.891825 15.999 1.83301C17.3443 2.77432 18.3672 4.10693 18.9297 5.64941C19.4922 7.19183 19.5669 8.8698 19.1436 10.4561C18.7201 12.0424 17.8189 13.4606 16.5625 14.5176L16.1396 14.873L16.6436 15.1006C18.7131 16.0371 20.4937 17.5113 21.8008 19.3691L21.8057 19.376L21.8115 19.3828C21.9131 19.5129 21.9872 19.6627 22.0293 19.8223C22.0713 19.9818 22.0799 20.1483 22.0557 20.3115C22.0314 20.4747 21.9742 20.631 21.8877 20.7715C21.8012 20.9119 21.6876 21.0339 21.5527 21.1289C21.4179 21.2238 21.2648 21.29 21.1035 21.3242C20.9421 21.3584 20.7751 21.3594 20.6133 21.3271C20.4514 21.2949 20.2972 21.2301 20.1611 21.1367H20.1621C20.0261 21.0433 19.9095 20.9236 19.8213 20.7842L19.8174 20.7773L19.8125 20.7705L19.6309 20.5205C18.7068 19.2851 17.5157 18.2723 16.1445 17.5596C14.6822 16.7995 13.0582 16.4024 11.4102 16.4023C9.7619 16.4023 8.13733 16.7994 6.6748 17.5596C5.21224 18.3198 3.95399 19.4215 3.00684 20.7705L3.00586 20.7715C2.89454 20.9312 2.74597 21.0615 2.57324 21.1514C2.40043 21.2413 2.20848 21.2886 2.01367 21.2881H2.01172C1.76183 21.2889 1.51776 21.2107 1.31445 21.0654L1.3125 21.0645L1.21777 20.9902C1.00629 20.8071 0.863708 20.5554 0.81543 20.2773C0.767179 19.9993 0.816693 19.7144 0.954102 19.4707L1.01855 19.3691C2.32562 17.5113 4.10627 16.0371 6.17578 15.1006L6.67969 14.873L6.25684 14.5176C5.00041 13.4606 4.09924 12.0424 3.67578 10.4561C3.25241 8.8698 3.32716 7.19183 3.88965 5.64941C4.45218 4.10693 5.47508 2.77432 6.82031 1.83301C8.16554 0.891732 9.76832 0.386719 11.4102 0.386719ZM22.0459 0.396484H22.0479C23.6906 0.391788 25.2952 0.894262 26.6426 1.83398C27.9899 2.77376 29.015 4.10623 29.5781 5.64941C30.1411 7.19246 30.2154 8.87148 29.79 10.458C29.3645 12.0448 28.4599 13.4621 27.2002 14.5166L26.7754 14.8721L27.2803 15.1006C29.3498 16.0371 31.1304 17.5113 32.4375 19.3691L32.4395 19.3711C32.5322 19.5009 32.5982 19.6482 32.6338 19.8037C32.6693 19.9594 32.6738 20.121 32.6465 20.2783C32.6192 20.4357 32.5606 20.5861 32.4746 20.7207C32.3887 20.8553 32.2768 20.9715 32.1455 21.0625L32.1416 21.0654C31.9383 21.2107 31.6942 21.2879 31.4443 21.2871C31.2492 21.2858 31.0569 21.2385 30.8838 21.1484C30.7106 21.0582 30.5612 20.9279 30.4482 20.7686C29.4992 19.4225 28.241 18.3235 26.7793 17.5645C25.4087 16.8527 23.8965 16.459 22.3555 16.4111L22.0469 16.4062L21.9258 16.4004C21.6472 16.3727 21.3853 16.2495 21.1855 16.0498C20.9571 15.8214 20.8282 15.5115 20.8281 15.1885C20.8281 14.8654 20.9571 14.5556 21.1855 14.3271C21.414 14.0988 21.7239 13.9707 22.0469 13.9707C23.5236 13.9706 24.9402 13.3831 25.9844 12.3389C27.0285 11.2946 27.6152 9.87807 27.6152 8.40137C27.6151 6.92463 27.0286 5.50809 25.9844 4.46387C25.0053 3.48475 23.6987 2.90804 22.3223 2.83984L22.0469 2.83301C21.5378 2.83207 21.0306 2.90233 20.541 3.04199L20.4199 3.07227C20.3014 3.09511 20.18 3.09982 20.0596 3.08691C19.8989 3.06971 19.7431 3.02129 19.6016 2.94336C19.4602 2.8655 19.3357 2.76017 19.2354 2.63379C19.1349 2.50724 19.0604 2.36158 19.0166 2.20605C18.9728 2.05055 18.9608 1.88788 18.9805 1.72754C19.0002 1.56725 19.0518 1.41271 19.1318 1.27246C19.212 1.13216 19.3192 1.00861 19.4473 0.910156C19.5753 0.81181 19.7219 0.739544 19.8779 0.698242L19.8838 0.697266C20.587 0.497074 21.3148 0.39527 22.0459 0.396484ZM12.4961 2.94043C11.4159 2.72557 10.2958 2.83537 9.27832 3.25684C8.26094 3.6783 7.39113 4.392 6.7793 5.30762C6.16748 6.22327 5.84089 7.30013 5.84082 8.40137C5.84082 9.87805 6.42763 11.2946 7.47168 12.3389C8.51599 13.3832 9.93328 13.9707 11.4102 13.9707C12.5111 13.9706 13.5874 13.6438 14.5029 13.0322C15.4187 12.4203 16.1332 11.5497 16.5547 10.5322C16.976 9.51487 17.0859 8.39542 16.8711 7.31543C16.6562 6.23527 16.1264 5.24263 15.3477 4.46387C14.5689 3.68512 13.5762 3.15531 12.4961 2.94043Z" fill="#4CAF4F" stroke="#4CAF4F" stroke-width="0.696069"/>
</svg>
